<svg width="251" height="23" viewBox="0 0 251 23" fill="none" xmlns="http://www.w3.org/2000/svg">
<path d="M53.1812 14.2461C53.1812 15.0664 52.8271 15.772 52.1191 16.3628C51.4111 16.9536 50.481 17.249 49.3286 17.249C48.2495 17.249 47.3853 16.978 46.7358 16.436C46.0864 15.894 45.7617 15.1958 45.7617 14.3413C45.7617 13.7114 45.9521 13.1865 46.333 12.7666C46.7188 12.3418 47.2876 11.9829 48.0396 11.6899C47.4194 11.3433 46.9556 10.9624 46.6479 10.5474C46.3403 10.1323 46.1865 9.66357 46.1865 9.14111C46.1865 8.34521 46.5234 7.67871 47.1973 7.1416C47.876 6.60449 48.6865 6.33594 49.6289 6.33594C50.5713 6.33594 51.333 6.58984 51.9141 7.09766C52.5 7.60547 52.793 8.24268 52.793 9.00928C52.793 9.50244 52.6318 9.97119 52.3096 10.4155C51.9873 10.855 51.5137 11.2163 50.8887 11.4995C51.6992 11.8462 52.2827 12.2295 52.6392 12.6494C53.0005 13.0693 53.1812 13.6016 53.1812 14.2461ZM51.4087 8.92871C51.4087 8.33301 51.2305 7.84961 50.874 7.47852C50.5225 7.10254 50.0708 6.91455 49.519 6.91455C48.9673 6.91455 48.5156 7.09521 48.1641 7.45654C47.8125 7.81299 47.6367 8.25732 47.6367 8.78955C47.6367 9.30225 47.8369 9.73682 48.2373 10.0933C48.6377 10.4497 49.3506 10.8306 50.376 11.2358C50.7422 11.0015 51.0059 10.6914 51.167 10.3057C51.3281 9.91992 51.4087 9.46094 51.4087 8.92871ZM51.7163 14.5903C51.7163 14.2827 51.6504 14.0142 51.5186 13.7847C51.3867 13.5503 51.1963 13.3379 50.9473 13.1475C50.708 12.9619 50.3735 12.769 49.9438 12.5688C49.519 12.3638 49.0576 12.1562 48.5596 11.9463C48.0908 12.2002 47.7466 12.5249 47.5269 12.9204C47.3071 13.311 47.1973 13.7578 47.1973 14.2607C47.1973 14.9785 47.4072 15.5596 47.8271 16.0039C48.252 16.4434 48.8159 16.6631 49.519 16.6631C50.1929 16.6631 50.7275 16.4678 51.123 16.0771C51.5186 15.6865 51.7163 15.1909 51.7163 14.5903ZM58.4171 19.6733C57.9581 19.6733 57.5382 19.6147 57.1573 19.4976C56.7765 19.3853 56.4493 19.2314 56.1759 19.0361C55.9024 18.8408 55.69 18.6162 55.5387 18.3623C55.3922 18.1084 55.3189 17.8472 55.3189 17.5786C55.3189 17.3394 55.3775 17.1245 55.4947 16.9341C55.6119 16.7388 55.7999 16.6411 56.0587 16.6411C56.3517 16.6411 56.5738 16.7144 56.7252 16.8608C56.8814 17.0024 56.9596 17.166 56.9596 17.3516C56.9596 17.5078 56.9327 17.7056 56.879 17.9448C56.8302 18.1841 56.7911 18.355 56.7618 18.4575C56.796 18.5015 56.857 18.5601 56.9449 18.6333C57.0377 18.7065 57.15 18.7725 57.2818 18.8311C57.4381 18.9043 57.6017 18.9629 57.7726 19.0068C57.9435 19.0508 58.1852 19.0728 58.4977 19.0728C58.7906 19.0728 59.0714 19.0239 59.3399 18.9263C59.6134 18.8286 59.8526 18.6724 60.0577 18.4575C60.2726 18.2329 60.4386 17.9692 60.5558 17.6665C60.6778 17.3687 60.7389 16.9756 60.7389 16.4873C60.7389 16.2236 60.7096 15.9624 60.651 15.7036C60.5973 15.4448 60.4947 15.2202 60.3434 15.0298C60.192 14.8394 59.9845 14.6929 59.7208 14.5903C59.462 14.4829 59.1324 14.4292 58.732 14.4292H57.7726V13.5869H58.4098C59.0836 13.5869 59.5694 13.4014 59.8673 13.0303C60.1651 12.6592 60.3141 12.1001 60.3141 11.353C60.3141 10.7427 60.17 10.2837 59.8819 9.97607C59.5938 9.66357 59.1861 9.50732 58.6588 9.50732C58.4049 9.50732 58.1949 9.53906 58.0289 9.60254C57.8678 9.66113 57.7359 9.71973 57.6334 9.77832C57.5113 9.84668 57.4112 9.92236 57.3331 10.0054C57.255 10.0884 57.1964 10.1494 57.1573 10.1885C57.1915 10.3447 57.233 10.5376 57.2818 10.7671C57.3307 10.9917 57.3551 11.2065 57.3551 11.4116C57.3551 11.5923 57.277 11.7559 57.1207 11.9023C56.9693 12.0439 56.7447 12.1147 56.4469 12.1147C56.1881 12.1147 55.9977 12.022 55.8756 11.8364C55.7584 11.6509 55.6998 11.436 55.6998 11.1919C55.6998 10.938 55.7706 10.6792 55.9122 10.4155C56.0538 10.1519 56.2638 9.90527 56.5421 9.67578C56.8204 9.44629 57.1598 9.26074 57.5602 9.11914C57.9605 8.97754 58.422 8.90674 58.9444 8.90674C59.545 8.90674 60.0406 8.99707 60.4312 9.17773C60.8268 9.35352 61.1368 9.56836 61.3614 9.82227C61.5812 10.0713 61.7325 10.3325 61.8155 10.606C61.8985 10.8794 61.94 11.1138 61.94 11.3091C61.94 11.5532 61.9059 11.7998 61.8375 12.0488C61.7691 12.293 61.6568 12.52 61.5006 12.73C61.3297 12.9595 61.1026 13.1694 60.8194 13.3599C60.5411 13.5454 60.1896 13.6968 59.7647 13.814V13.9312C60.0382 13.9556 60.3287 14.0166 60.6363 14.1143C60.9488 14.2119 61.2296 14.356 61.4786 14.5464C61.7374 14.7466 61.9498 15.0054 62.1158 15.3228C62.2818 15.6353 62.3648 16.0332 62.3648 16.5166C62.3648 17.4541 61.9889 18.2134 61.2369 18.7944C60.485 19.3804 59.545 19.6733 58.4171 19.6733ZM72.2077 14.2461C72.2077 15.0664 71.8537 15.772 71.1457 16.3628C70.4377 16.9536 69.5075 17.249 68.3552 17.249C67.2761 17.249 66.4118 16.978 65.7624 16.436C65.113 15.894 64.7883 15.1958 64.7883 14.3413C64.7883 13.7114 64.9787 13.1865 65.3596 12.7666C65.7453 12.3418 66.3142 11.9829 67.0661 11.6899C66.446 11.3433 65.9821 10.9624 65.6745 10.5474C65.3669 10.1323 65.2131 9.66357 65.2131 9.14111C65.2131 8.34521 65.55 7.67871 66.2238 7.1416C66.9025 6.60449 67.7131 6.33594 68.6555 6.33594C69.5979 6.33594 70.3596 6.58984 70.9406 7.09766C71.5266 7.60547 71.8195 8.24268 71.8195 9.00928C71.8195 9.50244 71.6584 9.97119 71.3361 10.4155C71.0139 10.855 70.5402 11.2163 69.9152 11.4995C70.7258 11.8462 71.3093 12.2295 71.6657 12.6494C72.0271 13.0693 72.2077 13.6016 72.2077 14.2461ZM70.4353 8.92871C70.4353 8.33301 70.257 7.84961 69.9006 7.47852C69.549 7.10254 69.0974 6.91455 68.5456 6.91455C67.9938 6.91455 67.5422 7.09521 67.1906 7.45654C66.8391 7.81299 66.6633 8.25732 66.6633 8.78955C66.6633 9.30225 66.8635 9.73682 67.2639 10.0933C67.6643 10.4497 68.3771 10.8306 69.4025 11.2358C69.7687 11.0015 70.0324 10.6914 70.1936 10.3057C70.3547 9.91992 70.4353 9.46094 70.4353 8.92871ZM70.7429 14.5903C70.7429 14.2827 70.677 14.0142 70.5451 13.7847C70.4133 13.5503 70.2229 13.3379 69.9738 13.1475C69.7346 12.9619 69.4001 12.769 68.9704 12.5688C68.5456 12.3638 68.0842 12.1562 67.5861 11.9463C67.1174 12.2002 66.7731 12.5249 66.5534 12.9204C66.3337 13.311 66.2238 13.7578 66.2238 14.2607C66.2238 14.9785 66.4338 15.5596 66.8537 16.0039C67.2785 16.4434 67.8425 16.6631 68.5456 16.6631C69.2194 16.6631 69.7541 16.4678 70.1496 16.0771C70.5451 15.6865 70.7429 15.1909 70.7429 14.5903ZM81.3987 10.1592C81.7112 10.5352 81.9432 10.9771 82.0945 11.4849C82.2508 11.9878 82.3289 12.5151 82.3289 13.0669C82.3289 13.731 82.2337 14.3267 82.0433 14.854C81.8528 15.3765 81.5916 15.811 81.2596 16.1577C80.9178 16.5142 80.5125 16.7827 80.0438 16.9634C79.575 17.144 79.0525 17.2344 78.4764 17.2344C77.8465 17.2344 77.285 17.1294 76.7918 16.9194C76.2986 16.7095 75.8982 16.4214 75.5906 16.0552C75.2684 15.6743 75.0267 15.23 74.8655 14.7222C74.7093 14.2095 74.6312 13.6577 74.6312 13.0669C74.6312 12.4858 74.7068 11.9512 74.8582 11.4629C75.0145 10.9746 75.2562 10.5327 75.5833 10.1372C75.8958 9.75635 76.2986 9.45605 76.7918 9.23633C77.285 9.0166 77.8489 8.90674 78.4837 8.90674C79.1526 8.90674 79.7264 9.01904 80.2049 9.24365C80.6834 9.46826 81.0813 9.77344 81.3987 10.1592ZM80.7103 13.0669C80.7103 11.9048 80.5101 11.0039 80.1097 10.3643C79.7142 9.72461 79.1746 9.40479 78.491 9.40479C77.7977 9.40479 77.2508 9.72461 76.8504 10.3643C76.45 11.0039 76.2498 11.9048 76.2498 13.0669C76.2498 14.1704 76.4402 15.0591 76.8211 15.7329C77.2068 16.4019 77.7586 16.7363 78.4764 16.7363C79.1941 16.7363 79.7459 16.4019 80.1316 15.7329C80.5174 15.0591 80.7103 14.1704 80.7103 13.0669ZM96.1772 17H89.3145V16.0039C89.4463 15.8525 89.6294 15.6841 89.8638 15.4985C90.0981 15.3081 90.3765 15.103 90.6987 14.8833C90.894 14.7515 91.1284 14.6074 91.4019 14.4512C91.6753 14.2949 91.9854 14.124 92.332 13.9385C92.7178 13.7334 93.0132 13.5527 93.2183 13.3965C93.4282 13.2402 93.6187 13.0474 93.7896 12.8179C93.9019 12.6665 93.9922 12.4785 94.0605 12.2539C94.1289 12.0244 94.1631 11.6997 94.1631 11.2798C94.1631 10.6694 93.9995 10.2227 93.6724 9.93945C93.3452 9.65137 92.9253 9.50732 92.4126 9.50732C92.0952 9.50732 91.7949 9.5708 91.5117 9.69775C91.2285 9.81982 91.0161 9.99072 90.8745 10.2104C90.9087 10.3667 90.9502 10.5522 90.999 10.7671C91.0527 10.9819 91.0796 11.1919 91.0796 11.397C91.0796 11.5825 91.0015 11.7485 90.8452 11.895C90.6938 12.0366 90.4668 12.1074 90.1641 12.1074C89.9199 12.1074 89.7319 12.0244 89.6001 11.8584C89.4683 11.6875 89.4023 11.4604 89.4023 11.1772C89.4023 10.9136 89.4756 10.6499 89.6221 10.3862C89.7686 10.1177 89.9785 9.87109 90.252 9.64648C90.5205 9.42676 90.8525 9.24854 91.248 9.11182C91.6436 8.9751 92.0708 8.90674 92.5298 8.90674C93.5308 8.90674 94.3242 9.13135 94.9102 9.58057C95.501 10.0249 95.7964 10.6206 95.7964 11.3677C95.7964 11.7241 95.7427 12.0488 95.6353 12.3418C95.5327 12.6348 95.3643 12.8936 95.1299 13.1182C94.8711 13.3672 94.5684 13.582 94.2217 13.7627C93.875 13.9385 93.3452 14.1851 92.6323 14.5024C92.2075 14.6929 91.812 14.8931 91.4458 15.103C91.0796 15.3081 90.7793 15.5083 90.5449 15.7036H96.1772V17ZM105.969 14.2461C105.969 15.0664 105.615 15.772 104.907 16.3628C104.199 16.9536 103.269 17.249 102.116 17.249C101.037 17.249 100.173 16.978 99.5235 16.436C98.8741 15.894 98.5494 15.1958 98.5494 14.3413C98.5494 13.7114 98.7398 13.1865 99.1207 12.7666C99.5064 12.3418 100.075 11.9829 100.827 11.6899C100.207 11.3433 99.7433 10.9624 99.4356 10.5474C99.128 10.1323 98.9742 9.66357 98.9742 9.14111C98.9742 8.34521 99.3111 7.67871 99.985 7.1416C100.664 6.60449 101.474 6.33594 102.417 6.33594C103.359 6.33594 104.121 6.58984 104.702 7.09766C105.288 7.60547 105.581 8.24268 105.581 9.00928C105.581 9.50244 105.42 9.97119 105.097 10.4155C104.775 10.855 104.301 11.2163 103.676 11.4995C104.487 11.8462 105.07 12.2295 105.427 12.6494C105.788 13.0693 105.969 13.6016 105.969 14.2461ZM104.196 8.92871C104.196 8.33301 104.018 7.84961 103.662 7.47852C103.31 7.10254 102.858 6.91455 102.307 6.91455C101.755 6.91455 101.303 7.09521 100.952 7.45654C100.6 7.81299 100.424 8.25732 100.424 8.78955C100.424 9.30225 100.625 9.73682 101.025 10.0933C101.425 10.4497 102.138 10.8306 103.164 11.2358C103.53 11.0015 103.794 10.6914 103.955 10.3057C104.116 9.91992 104.196 9.46094 104.196 8.92871ZM104.504 14.5903C104.504 14.2827 104.438 14.0142 104.306 13.7847C104.174 13.5503 103.984 13.3379 103.735 13.1475C103.496 12.9619 103.161 12.769 102.732 12.5688C102.307 12.3638 101.845 12.1562 101.347 11.9463C100.879 12.2002 100.534 12.5249 100.315 12.9204C100.095 13.311 99.985 13.7578 99.985 14.2607C99.985 14.9785 100.195 15.5596 100.615 16.0039C101.04 16.4434 101.604 16.6631 102.307 16.6631C102.981 16.6631 103.515 16.4678 103.911 16.0771C104.306 15.6865 104.504 15.1909 104.504 14.5903ZM115.819 14.2461C115.819 15.0664 115.465 15.772 114.757 16.3628C114.049 16.9536 113.119 17.249 111.967 17.249C110.887 17.249 110.023 16.978 109.374 16.436C108.724 15.894 108.4 15.1958 108.4 14.3413C108.4 13.7114 108.59 13.1865 108.971 12.7666C109.357 12.3418 109.925 11.9829 110.677 11.6899C110.057 11.3433 109.593 10.9624 109.286 10.5474C108.978 10.1323 108.824 9.66357 108.824 9.14111C108.824 8.34521 109.161 7.67871 109.835 7.1416C110.514 6.60449 111.324 6.33594 112.267 6.33594C113.209 6.33594 113.971 6.58984 114.552 7.09766C115.138 7.60547 115.431 8.24268 115.431 9.00928C115.431 9.50244 115.27 9.97119 114.947 10.4155C114.625 10.855 114.152 11.2163 113.527 11.4995C114.337 11.8462 114.921 12.2295 115.277 12.6494C115.638 13.0693 115.819 13.6016 115.819 14.2461ZM114.047 8.92871C114.047 8.33301 113.868 7.84961 113.512 7.47852C113.16 7.10254 112.709 6.91455 112.157 6.91455C111.605 6.91455 111.154 7.09521 110.802 7.45654C110.45 7.81299 110.275 8.25732 110.275 8.78955C110.275 9.30225 110.475 9.73682 110.875 10.0933C111.276 10.4497 111.988 10.8306 113.014 11.2358C113.38 11.0015 113.644 10.6914 113.805 10.3057C113.966 9.91992 114.047 9.46094 114.047 8.92871ZM114.354 14.5903C114.354 14.2827 114.288 14.0142 114.156 13.7847C114.025 13.5503 113.834 13.3379 113.585 13.1475C113.346 12.9619 113.011 12.769 112.582 12.5688C112.157 12.3638 111.696 12.1562 111.197 11.9463C110.729 12.2002 110.384 12.5249 110.165 12.9204C109.945 13.311 109.835 13.7578 109.835 14.2607C109.835 14.9785 110.045 15.5596 110.465 16.0039C110.89 16.4434 111.454 16.6631 112.157 16.6631C112.831 16.6631 113.365 16.4678 113.761 16.0771C114.156 15.6865 114.354 15.1909 114.354 14.5903ZM125.01 10.1592C125.323 10.5352 125.554 10.9771 125.706 11.4849C125.862 11.9878 125.94 12.5151 125.94 13.0669C125.94 13.731 125.845 14.3267 125.655 14.854C125.464 15.3765 125.203 15.811 124.871 16.1577C124.529 16.5142 124.124 16.7827 123.655 16.9634C123.186 17.144 122.664 17.2344 122.088 17.2344C121.458 17.2344 120.896 17.1294 120.403 16.9194C119.91 16.7095 119.51 16.4214 119.202 16.0552C118.88 15.6743 118.638 15.23 118.477 14.7222C118.321 14.2095 118.242 13.6577 118.242 13.0669C118.242 12.4858 118.318 11.9512 118.47 11.4629C118.626 10.9746 118.867 10.5327 119.195 10.1372C119.507 9.75635 119.91 9.45605 120.403 9.23633C120.896 9.0166 121.46 8.90674 122.095 8.90674C122.764 8.90674 123.338 9.01904 123.816 9.24365C124.295 9.46826 124.693 9.77344 125.01 10.1592ZM124.322 13.0669C124.322 11.9048 124.121 11.0039 123.721 10.3643C123.325 9.72461 122.786 9.40479 122.102 9.40479C121.409 9.40479 120.862 9.72461 120.462 10.3643C120.061 11.0039 119.861 11.9048 119.861 13.0669C119.861 14.1704 120.052 15.0591 120.432 15.7329C120.818 16.4019 121.37 16.7363 122.088 16.7363C122.805 16.7363 123.357 16.4019 123.743 15.7329C124.129 15.0591 124.322 14.1704 124.322 13.0669ZM140.301 14.2461C140.301 15.0664 139.947 15.772 139.239 16.3628C138.531 16.9536 137.601 17.249 136.449 17.249C135.37 17.249 134.505 16.978 133.856 16.436C133.207 15.894 132.882 15.1958 132.882 14.3413C132.882 13.7114 133.072 13.1865 133.453 12.7666C133.839 12.3418 134.408 11.9829 135.16 11.6899C134.54 11.3433 134.076 10.9624 133.768 10.5474C133.46 10.1323 133.307 9.66357 133.307 9.14111C133.307 8.34521 133.644 7.67871 134.317 7.1416C134.996 6.60449 135.807 6.33594 136.749 6.33594C137.691 6.33594 138.453 6.58984 139.034 7.09766C139.62 7.60547 139.913 8.24268 139.913 9.00928C139.913 9.50244 139.752 9.97119 139.43 10.4155C139.107 10.855 138.634 11.2163 138.009 11.4995C138.819 11.8462 139.403 12.2295 139.759 12.6494C140.121 13.0693 140.301 13.6016 140.301 14.2461ZM138.529 8.92871C138.529 8.33301 138.351 7.84961 137.994 7.47852C137.643 7.10254 137.191 6.91455 136.639 6.91455C136.087 6.91455 135.636 7.09521 135.284 7.45654C134.933 7.81299 134.757 8.25732 134.757 8.78955C134.757 9.30225 134.957 9.73682 135.357 10.0933C135.758 10.4497 136.471 10.8306 137.496 11.2358C137.862 11.0015 138.126 10.6914 138.287 10.3057C138.448 9.91992 138.529 9.46094 138.529 8.92871ZM138.836 14.5903C138.836 14.2827 138.771 14.0142 138.639 13.7847C138.507 13.5503 138.316 13.3379 138.067 13.1475C137.828 12.9619 137.494 12.769 137.064 12.5688C136.639 12.3638 136.178 12.1562 135.68 11.9463C135.211 12.2002 134.867 12.5249 134.647 12.9204C134.427 13.311 134.317 13.7578 134.317 14.2607C134.317 14.9785 134.527 15.5596 134.947 16.0039C135.372 16.4434 135.936 16.6631 136.639 16.6631C137.313 16.6631 137.848 16.4678 138.243 16.0771C138.639 15.6865 138.836 15.1909 138.836 14.5903ZM149.492 10.1592C149.805 10.5352 150.037 10.9771 150.188 11.4849C150.344 11.9878 150.422 12.5151 150.422 13.0669C150.422 13.731 150.327 14.3267 150.137 14.854C149.946 15.3765 149.685 15.811 149.353 16.1577C149.011 16.5142 148.606 16.7827 148.137 16.9634C147.669 17.144 147.146 17.2344 146.57 17.2344C145.94 17.2344 145.379 17.1294 144.885 16.9194C144.392 16.7095 143.992 16.4214 143.684 16.0552C143.362 15.6743 143.12 15.23 142.959 14.7222C142.803 14.2095 142.725 13.6577 142.725 13.0669C142.725 12.4858 142.8 11.9512 142.952 11.4629C143.108 10.9746 143.35 10.5327 143.677 10.1372C143.989 9.75635 144.392 9.45605 144.885 9.23633C145.379 9.0166 145.942 8.90674 146.577 8.90674C147.246 8.90674 147.82 9.01904 148.298 9.24365C148.777 9.46826 149.175 9.77344 149.492 10.1592ZM148.804 13.0669C148.804 11.9048 148.604 11.0039 148.203 10.3643C147.808 9.72461 147.268 9.40479 146.585 9.40479C145.891 9.40479 145.344 9.72461 144.944 10.3643C144.544 11.0039 144.343 11.9048 144.343 13.0669C144.343 14.1704 144.534 15.0591 144.915 15.7329C145.3 16.4019 145.852 16.7363 146.57 16.7363C147.288 16.7363 147.839 16.4019 148.225 15.7329C148.611 15.0591 148.804 14.1704 148.804 13.0669ZM159.753 17H152.89V16.0039C153.022 15.8525 153.205 15.6841 153.439 15.4985C153.674 15.3081 153.952 15.103 154.274 14.8833C154.469 14.7515 154.704 14.6074 154.977 14.4512C155.251 14.2949 155.561 14.124 155.907 13.9385C156.293 13.7334 156.589 13.5527 156.794 13.3965C157.004 13.2402 157.194 13.0474 157.365 12.8179C157.477 12.6665 157.568 12.4785 157.636 12.2539C157.704 12.0244 157.738 11.6997 157.738 11.2798C157.738 10.6694 157.575 10.2227 157.248 9.93945C156.921 9.65137 156.501 9.50732 155.988 9.50732C155.671 9.50732 155.37 9.5708 155.087 9.69775C154.804 9.81982 154.592 9.99072 154.45 10.2104C154.484 10.3667 154.526 10.5522 154.574 10.7671C154.628 10.9819 154.655 11.1919 154.655 11.397C154.655 11.5825 154.577 11.7485 154.421 11.895C154.269 12.0366 154.042 12.1074 153.739 12.1074C153.495 12.1074 153.307 12.0244 153.175 11.8584C153.044 11.6875 152.978 11.4604 152.978 11.1772C152.978 10.9136 153.051 10.6499 153.197 10.3862C153.344 10.1177 153.554 9.87109 153.827 9.64648C154.096 9.42676 154.428 9.24854 154.823 9.11182C155.219 8.9751 155.646 8.90674 156.105 8.90674C157.106 8.90674 157.9 9.13135 158.486 9.58057C159.076 10.0249 159.372 10.6206 159.372 11.3677C159.372 11.7241 159.318 12.0488 159.211 12.3418C159.108 12.6348 158.94 12.8936 158.705 13.1182C158.446 13.3672 158.144 13.582 157.797 13.7627C157.45 13.9385 156.921 14.1851 156.208 14.5024C155.783 14.6929 155.387 14.8931 155.021 15.103C154.655 15.3081 154.355 15.5083 154.12 15.7036H159.753V17ZM169.544 14.2461C169.544 15.0664 169.19 15.772 168.482 16.3628C167.774 16.9536 166.844 17.249 165.692 17.249C164.613 17.249 163.748 16.978 163.099 16.436C162.45 15.894 162.125 15.1958 162.125 14.3413C162.125 13.7114 162.315 13.1865 162.696 12.7666C163.082 12.3418 163.651 11.9829 164.403 11.6899C163.783 11.3433 163.319 10.9624 163.011 10.5474C162.703 10.1323 162.55 9.66357 162.55 9.14111C162.55 8.34521 162.887 7.67871 163.56 7.1416C164.239 6.60449 165.05 6.33594 165.992 6.33594C166.934 6.33594 167.696 6.58984 168.277 7.09766C168.863 7.60547 169.156 8.24268 169.156 9.00928C169.156 9.50244 168.995 9.97119 168.673 10.4155C168.35 10.855 167.877 11.2163 167.252 11.4995C168.062 11.8462 168.646 12.2295 169.002 12.6494C169.364 13.0693 169.544 13.6016 169.544 14.2461ZM167.772 8.92871C167.772 8.33301 167.594 7.84961 167.237 7.47852C166.886 7.10254 166.434 6.91455 165.882 6.91455C165.33 6.91455 164.879 7.09521 164.527 7.45654C164.176 7.81299 164 8.25732 164 8.78955C164 9.30225 164.2 9.73682 164.6 10.0933C165.001 10.4497 165.714 10.8306 166.739 11.2358C167.105 11.0015 167.369 10.6914 167.53 10.3057C167.691 9.91992 167.772 9.46094 167.772 8.92871ZM168.079 14.5903C168.079 14.2827 168.013 14.0142 167.882 13.7847C167.75 13.5503 167.559 13.3379 167.31 13.1475C167.071 12.9619 166.737 12.769 166.307 12.5688C165.882 12.3638 165.421 12.1562 164.923 11.9463C164.454 12.2002 164.11 12.5249 163.89 12.9204C163.67 13.311 163.56 13.7578 163.56 14.2607C163.56 14.9785 163.77 15.5596 164.19 16.0039C164.615 16.4434 165.179 16.6631 165.882 16.6631C166.556 16.6631 167.091 16.4678 167.486 16.0771C167.882 15.6865 168.079 15.1909 168.079 14.5903ZM183.913 14.2461C183.913 15.0664 183.559 15.772 182.851 16.3628C182.143 16.9536 181.212 17.249 180.06 17.249C178.981 17.249 178.117 16.978 177.467 16.436C176.818 15.894 176.493 15.1958 176.493 14.3413C176.493 13.7114 176.684 13.1865 177.064 12.7666C177.45 12.3418 178.019 11.9829 178.771 11.6899C178.151 11.3433 177.687 10.9624 177.379 10.5474C177.072 10.1323 176.918 9.66357 176.918 9.14111C176.918 8.34521 177.255 7.67871 177.929 7.1416C178.607 6.60449 179.418 6.33594 180.36 6.33594C181.303 6.33594 182.064 6.58984 182.646 7.09766C183.231 7.60547 183.524 8.24268 183.524 9.00928C183.524 9.50244 183.363 9.97119 183.041 10.4155C182.719 10.855 182.245 11.2163 181.62 11.4995C182.431 11.8462 183.014 12.2295 183.371 12.6494C183.732 13.0693 183.913 13.6016 183.913 14.2461ZM182.14 8.92871C182.14 8.33301 181.962 7.84961 181.605 7.47852C181.254 7.10254 180.802 6.91455 180.25 6.91455C179.699 6.91455 179.247 7.09521 178.896 7.45654C178.544 7.81299 178.368 8.25732 178.368 8.78955C178.368 9.30225 178.568 9.73682 178.969 10.0933C179.369 10.4497 180.082 10.8306 181.107 11.2358C181.474 11.0015 181.737 10.6914 181.898 10.3057C182.06 9.91992 182.14 9.46094 182.14 8.92871ZM182.448 14.5903C182.448 14.2827 182.382 14.0142 182.25 13.7847C182.118 13.5503 181.928 13.3379 181.679 13.1475C181.439 12.9619 181.105 12.769 180.675 12.5688C180.25 12.3638 179.789 12.1562 179.291 11.9463C178.822 12.2002 178.478 12.5249 178.258 12.9204C178.039 13.311 177.929 13.7578 177.929 14.2607C177.929 14.9785 178.139 15.5596 178.559 16.0039C178.983 16.4434 179.547 16.6631 180.25 16.6631C180.924 16.6631 181.459 16.4678 181.854 16.0771C182.25 15.6865 182.448 15.1909 182.448 14.5903ZM193.118 9.61719L187.896 19.6733H186.981L191.895 10.3716H189.017C188.592 10.3716 188.26 10.3765 188.021 10.3862C187.781 10.396 187.562 10.4424 187.361 10.5254C187.21 10.5889 187.073 10.7524 186.951 11.0161C186.834 11.2749 186.744 11.6069 186.68 12.0122H186.233V9.14111H193.118V9.61719ZM201.76 13.2207C201.76 14.0703 201.626 14.8711 201.357 15.623C201.089 16.3701 200.703 17.0269 200.2 17.5933C199.707 18.1499 199.104 18.6113 198.391 18.9775C197.683 19.3486 196.889 19.5928 196.01 19.71L195.879 19.0508L196.538 18.9336C197.588 18.6016 198.408 18.0913 198.999 17.4028C199.59 16.7144 199.97 15.8403 200.141 14.7808C199.741 15.1226 199.341 15.374 198.94 15.5352C198.545 15.6914 198.098 15.7695 197.6 15.7695C196.804 15.7695 196.111 15.4595 195.52 14.8394C194.934 14.2192 194.641 13.438 194.641 12.4956C194.641 11.4849 194.98 10.6328 195.659 9.93945C196.342 9.24609 197.185 8.89941 198.186 8.89941C199.275 8.89941 200.141 9.2876 200.786 10.064C201.435 10.8403 201.76 11.8926 201.76 13.2207ZM200.207 13.1328C200.207 11.9902 200.019 11.0967 199.643 10.4521C199.272 9.80273 198.781 9.47803 198.171 9.47803C197.59 9.47803 197.121 9.72949 196.765 10.2324C196.408 10.7305 196.23 11.4189 196.23 12.2979C196.23 13.0889 196.411 13.7236 196.772 14.2021C197.138 14.6807 197.627 14.9199 198.237 14.9199C198.618 14.9199 198.967 14.8516 199.284 14.7148C199.602 14.5732 199.897 14.3486 200.171 14.041C200.171 14.0215 200.173 13.9824 200.178 13.9238C200.188 13.8652 200.193 13.7822 200.193 13.6748C200.193 13.6064 200.195 13.5234 200.2 13.4258C200.205 13.3281 200.207 13.2305 200.207 13.1328ZM209.347 17H204.41V16.48C204.557 16.4702 204.784 16.4507 205.092 16.4214C205.404 16.3872 205.619 16.353 205.736 16.3188C205.887 16.27 206.002 16.1919 206.08 16.0845C206.163 15.9722 206.205 15.8062 206.205 15.5864V10.4448H204.381V9.82959H204.784C205.311 9.82959 205.783 9.73193 206.198 9.53662C206.617 9.34131 206.918 9.13135 207.098 8.90674H207.706C207.692 9.22412 207.677 9.59521 207.662 10.02C207.648 10.4448 207.64 10.8257 207.64 11.1626V15.5059C207.64 15.6768 207.677 15.8306 207.75 15.9673C207.828 16.0991 207.938 16.1968 208.08 16.2603C208.207 16.314 208.414 16.3628 208.702 16.4067C208.991 16.4507 209.205 16.4751 209.347 16.48V17ZM222.822 9.61719L217.6 19.6733H216.684L221.599 10.3716H218.72C218.295 10.3716 217.963 10.3765 217.724 10.3862C217.485 10.396 217.265 10.4424 217.065 10.5254C216.914 10.5889 216.777 10.7524 216.655 11.0161C216.538 11.2749 216.447 11.6069 216.384 12.0122H215.937V9.14111H222.822V9.61719ZM231.669 16.3408H230.182V19.6733H228.775V16.3408H224.088V15.2129L229.222 8.95068H230.182V15.3813H231.669V16.3408ZM228.775 15.3813V10.584L224.82 15.3813H228.775ZM236.677 19.6733C236.218 19.6733 235.799 19.6147 235.418 19.4976C235.037 19.3853 234.71 19.2314 234.436 19.0361C234.163 18.8408 233.95 18.6162 233.799 18.3623C233.653 18.1084 233.579 17.8472 233.579 17.5786C233.579 17.3394 233.638 17.1245 233.755 16.9341C233.872 16.7388 234.06 16.6411 234.319 16.6411C234.612 16.6411 234.834 16.7144 234.986 16.8608C235.142 17.0024 235.22 17.166 235.22 17.3516C235.22 17.5078 235.193 17.7056 235.139 17.9448C235.091 18.1841 235.051 18.355 235.022 18.4575C235.056 18.5015 235.117 18.5601 235.205 18.6333C235.298 18.7065 235.41 18.7725 235.542 18.8311C235.698 18.9043 235.862 18.9629 236.033 19.0068C236.204 19.0508 236.446 19.0728 236.758 19.0728C237.051 19.0728 237.332 19.0239 237.6 18.9263C237.874 18.8286 238.113 18.6724 238.318 18.4575C238.533 18.2329 238.699 17.9692 238.816 17.6665C238.938 17.3687 238.999 16.9756 238.999 16.4873C238.999 16.2236 238.97 15.9624 238.911 15.7036C238.858 15.4448 238.755 15.2202 238.604 15.0298C238.452 14.8394 238.245 14.6929 237.981 14.5903C237.722 14.4829 237.393 14.4292 236.992 14.4292H236.033V13.5869H236.67C237.344 13.5869 237.83 13.4014 238.128 13.0303C238.425 12.6592 238.574 12.1001 238.574 11.353C238.574 10.7427 238.43 10.2837 238.142 9.97607C237.854 9.66357 237.446 9.50732 236.919 9.50732C236.665 9.50732 236.455 9.53906 236.289 9.60254C236.128 9.66113 235.996 9.71973 235.894 9.77832C235.772 9.84668 235.672 9.92236 235.593 10.0054C235.515 10.0884 235.457 10.1494 235.418 10.1885C235.452 10.3447 235.493 10.5376 235.542 10.7671C235.591 10.9917 235.615 11.2065 235.615 11.4116C235.615 11.5923 235.537 11.7559 235.381 11.9023C235.23 12.0439 235.005 12.1147 234.707 12.1147C234.448 12.1147 234.258 12.022 234.136 11.8364C234.019 11.6509 233.96 11.436 233.96 11.1919C233.96 10.938 234.031 10.6792 234.173 10.4155C234.314 10.1519 234.524 9.90527 234.802 9.67578C235.081 9.44629 235.42 9.26074 235.821 9.11914C236.221 8.97754 236.682 8.90674 237.205 8.90674C237.805 8.90674 238.301 8.99707 238.692 9.17773C239.087 9.35352 239.397 9.56836 239.622 9.82227C239.842 10.0713 239.993 10.3325 240.076 10.606C240.159 10.8794 240.2 11.1138 240.2 11.3091C240.2 11.5532 240.166 11.7998 240.098 12.0488C240.029 12.293 239.917 12.52 239.761 12.73C239.59 12.9595 239.363 13.1694 239.08 13.3599C238.801 13.5454 238.45 13.6968 238.025 13.814V13.9312C238.299 13.9556 238.589 14.0166 238.897 14.1143C239.209 14.2119 239.49 14.356 239.739 14.5464C239.998 14.7466 240.21 15.0054 240.376 15.3228C240.542 15.6353 240.625 16.0332 240.625 16.5166C240.625 17.4541 240.249 18.2134 239.497 18.7944C238.745 19.3804 237.805 19.6733 236.677 19.6733ZM248.461 13.5649C248.783 13.8188 249.05 14.146 249.26 14.5464C249.474 14.9468 249.582 15.4473 249.582 16.0479C249.582 17.0977 249.223 17.9644 248.505 18.6479C247.787 19.3315 246.877 19.6733 245.773 19.6733C244.919 19.6733 244.196 19.4707 243.605 19.0654C243.014 18.6602 242.719 18.189 242.719 17.6519C242.719 17.4028 242.78 17.1855 242.902 17C243.024 16.8145 243.212 16.7217 243.466 16.7217C243.759 16.7217 243.981 16.7998 244.133 16.9561C244.289 17.1074 244.367 17.2734 244.367 17.4541C244.367 17.6104 244.34 17.8057 244.286 18.04C244.233 18.2744 244.191 18.4478 244.162 18.5601C244.201 18.5942 244.264 18.6406 244.352 18.6992C244.44 18.7578 244.545 18.814 244.667 18.8677C244.794 18.9214 244.948 18.9678 245.129 19.0068C245.314 19.0508 245.529 19.0728 245.773 19.0728C246.086 19.0728 246.381 19.0093 246.659 18.8823C246.938 18.7554 247.172 18.5674 247.363 18.3184C247.573 18.0449 247.729 17.7324 247.831 17.3809C247.939 17.0342 247.992 16.5923 247.992 16.0552C247.992 15.3667 247.8 14.7979 247.414 14.3486C247.033 13.8945 246.53 13.6675 245.905 13.6675C245.514 13.6675 245.148 13.7407 244.806 13.8872C244.47 14.0337 244.167 14.2778 243.898 14.6196L243.408 14.4292L244.03 9.14111H249.274V10.4448H244.623L244.242 13.5503C244.462 13.394 244.75 13.2402 245.107 13.0889C245.468 12.9326 245.864 12.8545 246.293 12.8545C246.65 12.8545 247.018 12.9106 247.399 13.0229C247.785 13.1304 248.139 13.311 248.461 13.5649Z" fill="#545454"/>
<path d="M25.9815 23H4.01915C1.80285 23 0 21.2046 0 19.0001V3.9999C0 1.79421 1.80285 0 4.01915 0H25.9808C28.196 0 30 1.79421 30 3.9999V19.0001C30.0006 21.2052 28.1972 23 25.9815 23ZM4.01915 1.14285C2.43563 1.14285 1.14836 2.42396 1.14836 3.9999V19.0001C1.14836 20.5755 2.43563 21.8571 4.01915 21.8571H25.9808C27.5638 21.8571 28.8516 20.5755 28.8516 19.0001V3.9999C28.8516 2.42396 27.5638 1.14285 25.9808 1.14285H4.01915ZM20.7037 3.35993C22.1363 3.35993 23.2977 4.51532 23.2977 5.94153C23.2977 7.36774 22.1368 8.52376 20.7037 8.52376C19.2706 8.52376 18.1097 7.36783 18.1097 5.94153C18.1097 4.51523 19.2712 3.35993 20.7037 3.35993ZM24.3204 3.35993C25.7529 3.35993 26.9151 4.51532 26.9151 5.94153C26.9151 7.36774 25.7536 8.52376 24.3204 8.52376C22.8873 8.52376 21.7264 7.36783 21.7264 5.94153C21.7264 4.51523 22.8879 3.35993 24.3204 3.35993ZM3.0861 16.3339H7.8683V18.0481H3.0861V16.3339ZM9.43467 16.3339H14.2175V18.0481H9.43467V16.3339ZM15.782 16.3339H20.5659V18.0481H15.782V16.3339ZM22.1305 16.3339H26.9144V18.0481H22.1305V16.3339ZM3.0861 3.36046H12.1263V5.07474H3.0861V3.36046ZM3.0861 6.76208H7.86946V8.47637H3.0861V6.76208Z" fill="#292929"/>
</svg>
